# xmcd
#
# Track frame offsets: 
#        150
#        7625
#        32922
#        52860
#        72231
#        91828
#        115800
#        141269
#        164663
#        185029
#        207752
#        221866
#        246760
#        268110
#        289945
#        319516
#
# Disc length: 4460 seconds
#
# Revision: 14
# Processed by: cddbd v1.5.2PL0 Copyright (c) Steve Scherf et al.
# Submitted via: ExactAudioCopy v0.99pb5
#
DISCID=ea116a10
DTITLE=Fito Páez - Euforia
DYEAR=1996
DGENRE=Rock
TTITLE0=Y dale alegría a mi corazón
TTITLE1=Cadáver exquisito
TTITLE2=11 y 6
TTITLE3=El chico de la tapa
TTITLE4=Mariposa tecknicolor
TTITLE5=Circo Beat
TTITLE6=Tus regalos deberían de llegar
TTITLE7=Por siete vidas (Cacería)
TTITLE8=Tumbas de la gloria
TTITLE9=Parte del aire
TTITLE10=Dar es dar
TTITLE11=Tres agujas
TTITLE12=A rodar mi vida
TTITLE13=Un vestido y un amor
TTITLE14=Ciudad de pobres corazones
TTITLE15=Del '63
EXTD=
EXTT0=
EXTT1=
EXTT2=
EXTT3=
EXTT4=
EXTT5=
EXTT6=
EXTT7=
EXTT8=
EXTT9=
EXTT10=
EXTT11=
EXTT12=
EXTT13=
EXTT14=
EXTT15=
PLAYORDER=
